<svg version="1.1" id="Layer_1" xmlns="http://www.w3.org/2000/svg" xmlns:xlink="http://www.w3.org/1999/xlink" x="0px" y="0px"
	 width="100%" viewBox="0 0 456 433" enable-background="new 0 0 456 433" xml:space="preserve">
<path fill="#000000" opacity="1.000000" stroke="none" 
	d="
M457.000000,154.000000 
	C457.000000,247.640488 457.000000,340.780975 457.000000,433.960724 
	C305.068909,433.960724 153.137802,433.960724 1.103351,433.960724 
	C1.103351,289.776184 1.103351,145.552292 1.103351,1.164195 
	C152.999847,1.164195 304.999908,1.164195 457.000000,1.164195 
	C457.000000,51.862209 457.000000,102.681107 457.000000,154.000000 
M25.343655,370.803589 
	C25.714949,373.197357 25.907598,375.635193 26.485954,377.977844 
	C30.899113,395.853699 46.247036,408.483551 65.907593,410.000580 
	C172.452774,410.000366 278.997955,410.000946 385.543152,409.993256 
	C387.370148,409.993134 389.197144,409.892822 391.850464,409.971008 
	C393.775269,409.658508 395.703125,409.363464 397.624451,409.030823 
	C416.518982,405.759613 431.351868,388.428162 431.993713,368.090240 
	C431.995758,272.382355 431.998505,176.674454 431.993225,80.966568 
	C431.993164,79.639427 431.892761,78.312279 431.942230,76.187820 
	C429.859680,63.884903 424.613983,53.401089 414.350464,45.859966 
	C407.124573,40.550735 399.095398,37.595490 389.567139,37.152199 
	C387.739166,37.101616 385.911224,37.006893 384.083252,37.006771 
	C280.182861,36.999676 176.282486,36.999249 72.382111,37.006824 
	C69.557274,37.007030 66.732430,37.101936 63.165916,37.364834 
	C46.729073,39.868828 34.467609,48.070251 28.157190,63.803871 
	C26.500887,67.933487 26.125055,72.576675 25.002996,77.916046 
	C25.002033,173.125809 25.000011,268.335571 25.006828,363.545319 
	C25.006983,365.704559 25.107393,367.863770 25.343655,370.803589 
z"/>
<path fill="#E65728" opacity="1.000000" stroke="none" 
	d="
M431.838623,369.023956 
	C431.351868,388.428162 416.518982,405.759613 397.624451,409.030823 
	C395.703125,409.363464 393.775269,409.658508 391.166077,409.575562 
	C389.486603,409.120270 388.491516,409.008026 387.496429,409.007935 
	C281.377960,408.999695 175.259476,408.996613 69.141022,409.034302 
	C67.752121,409.034821 66.363411,409.559021 64.974617,409.838806 
	C46.247036,408.483551 30.899113,395.853699 26.485954,377.977844 
	C25.907598,375.635193 25.714949,373.197357 25.584122,370.143921 
	C25.884178,368.656769 25.995905,367.829315 25.995962,367.001862 
	C26.002375,271.719543 26.004045,176.437195 25.964249,81.154884 
	C25.963669,79.764488 25.440475,78.374298 25.161188,76.984016 
	C26.125055,72.576675 26.500887,67.933487 28.157190,63.803871 
	C34.467609,48.070251 46.729073,39.868828 63.823792,37.581642 
	C65.303276,37.879005 66.124878,38.030144 66.946487,38.030117 
	C169.145798,38.026619 271.345093,38.013691 373.544403,37.993217 
	C379.035828,37.992119 384.527283,37.922913 390.018707,37.885410 
	C399.095398,37.595490 407.124573,40.550735 414.350464,45.859966 
	C424.613983,53.401089 429.859680,63.884903 431.561646,76.857346 
	C431.119965,78.187752 431.005310,78.848640 431.005249,79.509537 
	C430.998230,174.623581 430.995972,269.737640 431.035248,364.851685 
	C431.035828,366.242523 431.559235,367.633209 431.838623,369.023956 
M414.753265,104.477425 
	C414.557373,95.678658 414.361481,86.879898 414.030121,77.260635 
	C412.441284,65.087311 403.568665,56.288445 390.325226,54.244095 
	C389.168182,54.163113 388.011108,54.011326 386.854065,54.011208 
	C281.182404,54.000492 175.510727,53.997772 69.839066,54.036137 
	C68.258255,54.036713 66.677635,54.556843 64.312424,54.972488 
	C52.263416,57.589745 45.127522,64.980721 42.248619,77.660835 
	C42.164536,84.747253 42.003616,91.834129 42.045818,98.919792 
	C42.057613,100.900909 42.668484,102.878448 43.934650,104.975601 
	C166.292755,104.983658 288.650879,104.992065 411.008972,104.993790 
	C412.005157,104.993805 413.001373,104.903412 414.753265,104.477425 
M413.067627,122.024857 
	C290.708771,122.016647 168.349915,122.008087 45.991051,122.006210 
	C44.994850,122.006195 43.998650,122.096588 42.246693,122.522568 
	C42.164532,123.679451 42.010605,124.836319 42.010448,125.993210 
	C41.999607,205.715561 41.996288,285.437897 42.036247,365.160217 
	C42.037041,366.741302 42.556843,368.322113 42.970413,370.716064 
	C44.386803,374.646301 45.399673,378.787506 47.317169,382.455780 
	C49.981380,387.552643 60.766457,393.070801 65.687340,392.737549 
	C67.513359,392.824921 69.339378,392.988586 71.165405,392.988800 
	C175.934402,393.001068 280.703400,393.000824 385.472412,392.991699 
	C387.301239,392.991547 389.130096,392.869141 391.719604,392.946716 
	C393.540680,392.284088 395.391083,391.691925 397.177948,390.947235 
	C407.032074,386.840393 412.993927,379.711395 414.755707,368.324646 
	C414.834290,367.666595 414.981598,367.008575 414.981689,366.350525 
	C414.994568,286.116608 415.000793,205.882721 414.957520,125.648842 
	C414.956879,124.480728 414.331543,123.312958 413.067627,122.024857 
z"/>
<path fill="#F8CDC0" opacity="1.000000" stroke="none" 
	d="
M65.441101,409.919678 
	C66.363411,409.559021 67.752121,409.034821 69.141022,409.034302 
	C175.259476,408.996613 281.377960,408.999695 387.496429,409.007935 
	C388.491516,409.008026 389.486603,409.120270 390.752930,409.509705 
	C389.197144,409.892822 387.370148,409.993134 385.543152,409.993256 
	C278.997955,410.000946 172.452774,410.000366 65.441101,409.919678 
z"/>
<path fill="#F2A58C" opacity="1.000000" stroke="none" 
	d="
M389.792908,37.518806 
	C384.527283,37.922913 379.035828,37.992119 373.544403,37.993217 
	C271.345093,38.013691 169.145798,38.026619 66.946487,38.030117 
	C66.124878,38.030144 65.303276,37.879005 64.194626,37.475567 
	C66.732430,37.101936 69.557274,37.007030 72.382111,37.006824 
	C176.282486,36.999249 280.182861,36.999676 384.083252,37.006771 
	C385.911224,37.006893 387.739166,37.101616 389.792908,37.518806 
z"/>
<path fill="#F8CFC1" opacity="1.000000" stroke="none" 
	d="
M25.082092,77.450027 
	C25.440475,78.374298 25.963669,79.764488 25.964249,81.154884 
	C26.004045,176.437195 26.002375,271.719543 25.995962,367.001862 
	C25.995905,367.829315 25.884178,368.656769 25.492813,369.753601 
	C25.107393,367.863770 25.006983,365.704559 25.006828,363.545319 
	C25.000011,268.335571 25.002033,173.125809 25.082092,77.450027 
z"/>
<path fill="#F8CFC1" opacity="1.000000" stroke="none" 
	d="
M431.916138,368.557098 
	C431.559235,367.633209 431.035828,366.242523 431.035248,364.851685 
	C430.995972,269.737640 430.998230,174.623581 431.005249,79.509537 
	C431.005310,78.848640 431.119965,78.187752 431.510132,77.255997 
	C431.892761,78.312279 431.993164,79.639427 431.993225,80.966568 
	C431.998505,176.674454 431.995758,272.382355 431.916138,368.557098 
z"/>
<path fill="#000000" opacity="1.000000" stroke="none" 
	d="
M65.096970,392.165497 
	C60.766457,393.070801 49.981380,387.552643 47.317169,382.455780 
	C45.399673,378.787506 44.386803,374.646301 42.961784,369.849915 
	C42.969585,286.704071 42.986015,204.424423 43.002449,122.144775 
	C43.998650,122.096588 44.994850,122.006195 45.991051,122.006210 
	C168.349915,122.008087 290.708771,122.016647 413.533630,122.540871 
	C413.999695,202.843491 413.998505,282.630096 414.006836,362.416718 
	C414.007050,364.578705 414.110321,366.740692 414.165558,368.902679 
	C412.993927,379.711395 407.032074,386.840393 397.177948,390.947235 
	C395.391083,391.691925 393.540680,392.284088 391.098663,392.528900 
	C389.479889,392.074219 388.482056,392.005096 387.484222,392.005035 
	C281.518616,392.000153 175.552979,391.999756 69.587364,392.007263 
	C68.090569,392.007355 66.593765,392.110474 65.096970,392.165497 
M322.750214,291.024811 
	C328.378052,289.421478 330.563568,286.658997 330.008484,281.850464 
	C329.494354,277.396912 325.791809,274.552185 319.061981,274.023560 
	C292.524078,274.015961 265.986115,273.992767 239.448318,274.041382 
	C237.932968,274.044159 236.418701,274.634186 234.134521,274.978546 
	C228.713501,275.310242 228.056885,279.800537 228.246429,283.357758 
	C228.465881,287.476318 230.801285,291.118622 236.391708,291.877350 
	C264.239685,291.917633 292.087646,291.963989 319.935608,291.962799 
	C320.623230,291.962769 321.310852,291.435944 322.750214,291.024811 
M210.723907,244.234940 
	C203.196823,236.685471 195.676376,229.129410 188.141006,221.588211 
	C178.602295,212.042130 168.937805,202.617889 159.565521,192.911362 
	C156.131149,189.354477 151.910309,189.398880 148.116638,190.313126 
	C146.232925,190.767090 143.881531,194.527740 143.975067,196.696121 
	C144.111771,199.865234 145.493500,203.683578 147.672607,205.946152 
	C160.615051,219.384186 173.928589,232.465302 187.149506,245.634155 
	C189.161591,247.638321 191.316101,249.381714 187.140289,251.427292 
	C186.263382,251.856857 186.008545,253.404678 185.214966,254.178772 
	C173.922546,265.193604 162.570877,276.147736 151.276901,287.160980 
	C149.389221,289.001770 147.471497,290.889374 145.976501,293.039612 
	C142.540253,297.981934 142.847427,302.929932 146.472672,305.942932 
	C150.610764,309.382172 155.664719,308.831970 160.077484,304.421417 
	C175.986053,288.520935 191.816589,272.541382 207.841263,256.758850 
	C211.399521,253.254364 213.135086,249.755234 210.723907,244.234940 
z"/>
<path fill="#000000" opacity="1.000000" stroke="none" 
	d="
M42.834694,77.077362 
	C45.127522,64.980721 52.263416,57.589745 65.164330,54.962822 
	C173.648849,54.967518 281.281464,54.982182 388.914093,54.989563 
	C389.577118,54.989609 390.240173,54.888386 390.903198,54.834450 
	C403.568665,56.288445 412.441284,65.087311 414.028687,78.130692 
	C414.017365,87.618912 414.007446,96.237076 413.997559,104.855232 
	C413.001373,104.903412 412.005157,104.993805 411.008972,104.993790 
	C288.650879,104.992065 166.292755,104.983658 43.468494,104.460464 
	C42.946457,94.989342 42.890575,86.033348 42.834694,77.077362 
M65.523659,87.997559 
	C69.915878,89.970352 72.607430,87.249809 75.052475,84.346825 
	C77.262436,81.722961 77.285606,78.511284 75.322266,75.946663 
	C73.041611,72.967545 70.208969,70.021317 65.811546,71.083992 
	C62.360058,71.918091 59.445591,73.611046 59.010273,77.727676 
	C58.504444,82.511070 60.023102,86.111954 65.523659,87.997559 
M143.698380,82.766579 
	C144.986877,78.359856 143.336868,74.799110 139.820068,72.457932 
	C136.664368,70.357155 133.085419,70.633522 129.752502,72.755867 
	C125.827980,75.254921 126.201500,79.514236 127.310181,82.530495 
	C128.246567,85.078033 131.592514,87.753830 134.326111,88.375252 
	C137.902206,89.188179 141.691620,87.639999 143.698380,82.766579 
M93.289711,76.242043 
	C93.184250,77.388756 92.972160,78.537285 92.991699,79.681862 
	C93.078331,84.755577 96.362572,88.967781 101.353348,88.465858 
	C104.353561,88.164124 107.966003,85.569374 109.680931,82.944962 
	C111.931076,79.501480 108.814346,73.693573 104.889885,72.029198 
	C100.003784,69.956970 96.757683,71.005722 93.289711,76.242043 
z"/>
<path fill="#F9D5C9" opacity="1.000000" stroke="none" 
	d="
M65.392151,392.451538 
	C66.593765,392.110474 68.090569,392.007355 69.587364,392.007263 
	C175.552979,391.999756 281.518616,392.000153 387.484222,392.005035 
	C388.482056,392.005096 389.479889,392.074219 390.718323,392.457428 
	C389.130096,392.869141 387.301239,392.991547 385.472412,392.991699 
	C280.703400,393.000824 175.934402,393.001068 71.165405,392.988800 
	C69.339378,392.988586 67.513359,392.824921 65.392151,392.451538 
z"/>
<path fill="#F9D5C9" opacity="1.000000" stroke="none" 
	d="
M390.614197,54.539272 
	C390.240173,54.888386 389.577118,54.989609 388.914093,54.989563 
	C281.281464,54.982182 173.648849,54.967518 65.556580,54.893829 
	C66.677635,54.556843 68.258255,54.036713 69.839066,54.036137 
	C175.510727,53.997772 281.182404,54.000492 386.854065,54.011208 
	C388.011108,54.011326 389.168182,54.163113 390.614197,54.539272 
z"/>
<path fill="#F9D5C9" opacity="1.000000" stroke="none" 
	d="
M42.624573,122.333672 
	C42.986015,204.424423 42.969585,286.704071 42.893829,369.443390 
	C42.556843,368.322113 42.037041,366.741302 42.036247,365.160217 
	C41.996288,285.437897 41.999607,205.715561 42.010448,125.993210 
	C42.010605,124.836319 42.164532,123.679451 42.624573,122.333672 
z"/>
<path fill="#F9D5C9" opacity="1.000000" stroke="none" 
	d="
M414.460632,368.613647 
	C414.110321,366.740692 414.007050,364.578705 414.006836,362.416718 
	C413.998505,282.630096 413.999695,202.843491 413.998688,122.600952 
	C414.331543,123.312958 414.956879,124.480728 414.957520,125.648842 
	C415.000793,205.882721 414.994568,286.116608 414.981689,366.350525 
	C414.981598,367.008575 414.834290,367.666595 414.460632,368.613647 
z"/>
<path fill="#F9D4C8" opacity="1.000000" stroke="none" 
	d="
M42.541656,77.369095 
	C42.890575,86.033348 42.946457,94.989342 43.003441,104.401474 
	C42.668484,102.878448 42.057613,100.900909 42.045818,98.919792 
	C42.003616,91.834129 42.164536,84.747253 42.541656,77.369095 
z"/>
<path fill="#F9D5C9" opacity="1.000000" stroke="none" 
	d="
M414.375427,104.666328 
	C414.007446,96.237076 414.017365,87.618912 414.096436,78.540939 
	C414.361481,86.879898 414.557373,95.678658 414.375427,104.666328 
z"/>
<path fill="#E65A2C" opacity="1.000000" stroke="none" 
	d="
M210.848572,244.601562 
	C213.135086,249.755234 211.399521,253.254364 207.841263,256.758850 
	C191.816589,272.541382 175.986053,288.520935 160.077484,304.421417 
	C155.664719,308.831970 150.610764,309.382172 146.472672,305.942932 
	C142.847427,302.929932 142.540253,297.981934 145.976501,293.039612 
	C147.471497,290.889374 149.389221,289.001770 151.276901,287.160980 
	C162.570877,276.147736 173.922546,265.193604 185.214966,254.178772 
	C186.008545,253.404678 186.263382,251.856857 187.140289,251.427292 
	C191.316101,249.381714 189.161591,247.638321 187.149506,245.634155 
	C173.928589,232.465302 160.615051,219.384186 147.672607,205.946152 
	C145.493500,203.683578 144.111771,199.865234 143.975067,196.696121 
	C143.881531,194.527740 146.232925,190.767090 148.116638,190.313126 
	C151.910309,189.398880 156.131149,189.354477 159.565521,192.911362 
	C168.937805,202.617889 178.602295,212.042130 188.141006,221.588211 
	C195.676376,229.129410 203.196823,236.685471 210.848572,244.601562 
z"/>
<path fill="#E65829" opacity="1.000000" stroke="none" 
	d="
M319.993073,274.155396 
	C325.791809,274.552185 329.494354,277.396912 330.008484,281.850464 
	C330.563568,286.658997 328.378052,289.421478 321.909149,291.026794 
	C292.701874,291.058014 264.335663,291.087280 235.969452,291.116577 
	C230.801285,291.118622 228.465881,287.476318 228.246429,283.357758 
	C228.056885,279.800537 228.713501,275.310242 234.993164,274.986877 
	C261.971283,274.996216 288.090820,275.014923 314.210205,274.961761 
	C316.138367,274.957855 318.065460,274.436279 319.993073,274.155396 
z"/>
<path fill="#FCE9E3" opacity="1.000000" stroke="none" 
	d="
M236.180573,291.496948 
	C264.335663,291.087280 292.701874,291.058014 321.533264,291.091797 
	C321.310852,291.435944 320.623230,291.962769 319.935608,291.962799 
	C292.087646,291.963989 264.239685,291.917633 236.180573,291.496948 
z"/>
<path fill="#EB7A55" opacity="1.000000" stroke="none" 
	d="
M319.527527,274.089478 
	C318.065460,274.436279 316.138367,274.957855 314.210205,274.961761 
	C288.090820,275.014923 261.971283,274.996216 235.377869,274.973083 
	C236.418701,274.634186 237.932968,274.044159 239.448318,274.041382 
	C265.986115,273.992767 292.524078,274.015961 319.527527,274.089478 
z"/>
<path fill="#E65A2C" opacity="1.000000" stroke="none" 
	d="
M65.140625,87.959045 
	C60.023102,86.111954 58.504444,82.511070 59.010273,77.727676 
	C59.445591,73.611046 62.360058,71.918091 65.811546,71.083992 
	C70.208969,70.021317 73.041611,72.967545 75.322266,75.946663 
	C77.285606,78.511284 77.262436,81.722961 75.052475,84.346825 
	C72.607430,87.249809 69.915878,89.970352 65.140625,87.959045 
z"/>
<path fill="#E65A2B" opacity="1.000000" stroke="none" 
	d="
M143.440857,83.071457 
	C141.691620,87.639999 137.902206,89.188179 134.326111,88.375252 
	C131.592514,87.753830 128.246567,85.078033 127.310181,82.530495 
	C126.201500,79.514236 125.827980,75.254921 129.752502,72.755867 
	C133.085419,70.633522 136.664368,70.357155 139.820068,72.457932 
	C143.336868,74.799110 144.986877,78.359856 143.440857,83.071457 
z"/>
<path fill="#E65A2B" opacity="1.000000" stroke="none" 
	d="
M93.548882,75.925766 
	C96.757683,71.005722 100.003784,69.956970 104.889885,72.029198 
	C108.814346,73.693573 111.931076,79.501480 109.680931,82.944962 
	C107.966003,85.569374 104.353561,88.164124 101.353348,88.465858 
	C96.362572,88.967781 93.078331,84.755577 92.991699,79.681862 
	C92.972160,78.537285 93.184250,77.388756 93.548882,75.925766 
z"/>
</svg>